<?xml version="1.0" encoding="iso-8859-1"?>
<!-- Generator: Adobe Illustrator 20.1.0, SVG Export Plug-In . SVG Version: 6.00 Build 0)  -->
<svg xmlns="http://www.w3.org/2000/svg" xmlns:xlink="http://www.w3.org/1999/xlink" version="1.1" id="&#1057;&#1083;&#1086;&#1081;_1" x="0px" y="0px" viewBox="0 0 64 64" style="enable-background:new 0 0 64 64;" xml:space="preserve">
<linearGradient id="SVGID_1__52520" gradientUnits="userSpaceOnUse" x1="32" y1="4.5" x2="32" y2="60.4764" spreadMethod="reflect">
	<stop offset="0" style="stop-color:#1A6DFF"/>
	<stop offset="1" style="stop-color:#C822FF"/>
</linearGradient>
<path style="fill:url(#SVGID_1__52520);" d="M52.995,14.629L33.993,6.367c-1.268-0.551-2.72-0.551-3.985,0l-19.004,8.262  C9.18,15.423,8,17.222,8,19.212V44.97c0,1.99,1.18,3.789,3.005,4.583l18.202,7.914c0.888,0.386,1.841,0.579,2.793,0.579  s1.905-0.193,2.792-0.579l18.204-7.914C54.82,48.759,56,46.96,56,44.97V19.212C56,17.222,54.82,15.423,52.995,14.629z M30.806,8.201  C31.185,8.036,31.593,7.953,32,7.953s0.815,0.083,1.195,0.248l19.002,8.262c0.093,0.041,0.179,0.091,0.267,0.14l-19.27,8.377  c-0.758,0.33-1.63,0.33-2.39,0l-19.269-8.377c0.087-0.049,0.173-0.1,0.266-0.14L30.806,8.201z M11.803,47.719  C10.707,47.242,10,46.163,10,44.97V19.212c0-0.354,0.069-0.695,0.185-1.016l19.822,8.618c0.321,0.14,0.654,0.242,0.993,0.311V52  v3.944c-0.34-0.069-0.673-0.172-0.995-0.312L11.803,47.719z M54,44.97c0,1.193-0.707,2.272-1.802,2.749l-18.203,7.914h-0.001  c-0.321,0.14-0.655,0.242-0.994,0.312V52V27.125c0.339-0.069,0.671-0.171,0.992-0.311l19.823-8.619  C53.931,18.517,54,18.858,54,19.212V44.97z"/>
<linearGradient id="SVGID_2__52520" gradientUnits="userSpaceOnUse" x1="43.5" y1="4.5" x2="43.5" y2="60.4764" spreadMethod="reflect">
	<stop offset="0" style="stop-color:#1A6DFF"/>
	<stop offset="1" style="stop-color:#C822FF"/>
</linearGradient>
<path style="fill:url(#SVGID_2__52520);" d="M51.344,22.084c-0.413-0.277-0.934-0.336-1.401-0.147l-14.001,5.726  C35.369,27.89,35,28.436,35,29.051v21.809c0,0.497,0.245,0.96,0.656,1.238c0.251,0.169,0.542,0.257,0.837,0.257  c0.189,0,0.381-0.036,0.564-0.109l14.006-5.728C51.633,46.289,52,45.745,52,45.131V23.322C52,22.825,51.755,22.362,51.344,22.084z   M50,44.792l-13,5.315V29.39l13-5.315V44.792z"/>
<linearGradient id="SVGID_3__52520" gradientUnits="userSpaceOnUse" x1="20.5" y1="4.5" x2="20.5" y2="60.4764" spreadMethod="reflect">
	<stop offset="0" style="stop-color:#1A6DFF"/>
	<stop offset="1" style="stop-color:#C822FF"/>
</linearGradient>
<path style="fill:url(#SVGID_3__52520);" d="M28.067,27.665L14.05,21.934c-0.465-0.184-0.982-0.127-1.394,0.15  C12.245,22.362,12,22.825,12,23.322v21.809c0,0.614,0.367,1.158,0.937,1.387l14.014,5.73c0.18,0.071,0.368,0.106,0.555,0.106  c0.295,0,0.587-0.087,0.839-0.257C28.755,51.819,29,51.356,29,50.859V29.051C29,28.436,28.631,27.89,28.067,27.665z M27,50.107  l-13-5.315V24.074l13,5.315V50.107z"/>
<linearGradient id="SVGID_4__52520" gradientUnits="userSpaceOnUse" x1="32" y1="4.5" x2="32" y2="60.4764" spreadMethod="reflect">
	<stop offset="0" style="stop-color:#1A6DFF"/>
	<stop offset="1" style="stop-color:#C822FF"/>
</linearGradient>
<path style="fill:url(#SVGID_4__52520);" d="M32,23.503c0.269,0,0.536-0.054,0.786-0.161l15.752-6.751L32.786,9.84  c-0.5-0.215-1.072-0.215-1.572,0l-15.752,6.751l15.752,6.751C31.464,23.449,31.731,23.503,32,23.503z M31.999,11.678l11.463,4.913  l-11.461,4.913l-11.463-4.913L31.999,11.678z"/>
<linearGradient id="SVGID_5__52520" gradientUnits="userSpaceOnUse" x1="41" y1="42.25" x2="41" y2="46.5788" spreadMethod="reflect">
	<stop offset="0" style="stop-color:#6DC7FF"/>
	<stop offset="1" style="stop-color:#E6ABFF"/>
</linearGradient>
<path style="fill:url(#SVGID_5__52520);" d="M41,46.591c-1.103,0-2-0.897-2-2s0.897-2,2-2s2,0.897,2,2S42.103,46.591,41,46.591z   M41,44.589v0.002V44.589z"/>
<linearGradient id="SVGID_6__52520" gradientUnits="userSpaceOnUse" x1="46" y1="27.4375" x2="46" y2="31.9897" spreadMethod="reflect">
	<stop offset="0" style="stop-color:#6DC7FF"/>
	<stop offset="1" style="stop-color:#E6ABFF"/>
</linearGradient>
<path style="fill:url(#SVGID_6__52520);" d="M46,31.591c-1.103,0-2-0.897-2-2s0.897-2,2-2s2,0.897,2,2S47.103,31.591,46,31.591z   M46,29.589v0.002V29.589z"/>
<linearGradient id="SVGID_7__52520" gradientUnits="userSpaceOnUse" x1="23" y1="42.375" x2="23" y2="46.7571" spreadMethod="reflect">
	<stop offset="0" style="stop-color:#6DC7FF"/>
	<stop offset="1" style="stop-color:#E6ABFF"/>
</linearGradient>
<path style="fill:url(#SVGID_7__52520);" d="M23,46.591c-1.103,0-2-0.897-2-2s0.897-2,2-2s2,0.897,2,2S24.103,46.591,23,46.591z   M23,44.591L23,44.591L23,44.591z"/>
<linearGradient id="SVGID_8__52520" gradientUnits="userSpaceOnUse" x1="18" y1="27.25" x2="18" y2="32.0002" spreadMethod="reflect">
	<stop offset="0" style="stop-color:#6DC7FF"/>
	<stop offset="1" style="stop-color:#E6ABFF"/>
</linearGradient>
<path style="fill:url(#SVGID_8__52520);" d="M18,31.591c-1.103,0-2-0.897-2-2s0.897-2,2-2s2,0.897,2,2S19.103,31.591,18,31.591z   M18,29.591L18,29.591L18,29.591z"/>
<linearGradient id="SVGID_9__52520" gradientUnits="userSpaceOnUse" x1="18" y1="40.375" x2="18" y2="44.6415" spreadMethod="reflect">
	<stop offset="0" style="stop-color:#6DC7FF"/>
	<stop offset="1" style="stop-color:#E6ABFF"/>
</linearGradient>
<path style="fill:url(#SVGID_9__52520);" d="M18,44.591c-1.103,0-2-0.897-2-2s0.897-2,2-2s2,0.897,2,2S19.103,44.591,18,44.591z   M18,42.591L18,42.591L18,42.591z"/>
<linearGradient id="SVGID_10__52520" gradientUnits="userSpaceOnUse" x1="23" y1="29.4375" x2="23" y2="33.9587" spreadMethod="reflect">
	<stop offset="0" style="stop-color:#6DC7FF"/>
	<stop offset="1" style="stop-color:#E6ABFF"/>
</linearGradient>
<path style="fill:url(#SVGID_10__52520);" d="M23,33.591c-1.103,0-2-0.897-2-2s0.897-2,2-2s2,0.897,2,2S24.103,33.591,23,33.591z   M23,31.591L23,31.591L23,31.591z"/>
</svg>
